The.Book.of.Eli.2010.1080p.BluRay.mkv
*************************************

TiTLE......  The Book of Eli
YEAR.......  2010
GENRE......  Action | Adventure | Drama | Thriller | Western
iMDB RATE..  User Rating: 7.0/10 (23,148 votes)
iMDB URL...  http://www.imdb.com/title/tt1037705/
*************************************************

Video
Duration                         : 1h 57mn
Overall bit rate                 : 7 108 Kbps
Width                            : 1 920 pixels
Height                           : 816 pixels
Display aspect ratio             : 2.35:1
Frame rate                       : 23.976 fps
Stream size                      : 5.19 GiB (89%)

Audio
Format                           : AC-3 Dolby Digital 5.1
Bit rate                         : 640 Kbps
Channel(s)                       : 6 channels
Channel positions                : Front: L C R, Surround: L R, LFE
Sampling rate                    : 48.0 KHz
Stream size                      : 538 MiB (9%)
Language                         : English

Subtitles: English, French
**************************


